<?xml version="1.0" encoding="UTF-8"?> <svg xmlns="http://www.w3.org/2000/svg" id="Layer_1" data-name="Layer 1" width="871.18" height="202.38" viewBox="0 0 871.18 202.38"><title>mrstairs-logo</title><g><rect x="31" y="106.11" width="124" height="17" fill="#1f7872"></rect><rect x="62" y="80.11" width="108" height="17" fill="#1f7872"></rect><rect x="91" y="53.11" width="86" height="17" fill="#1f7872"></rect><rect x="116" y="28.11" width="65" height="17" fill="#1f7872"></rect><rect x="133" y="3.11" width="52" height="17" fill="#1f7872"></rect><g><path d="M193.06,163.42l-13.4,31.12H187l2.15-6.06h5.73l-.25,6.06H202l-.17-31.12ZM195.35,183h-4.24l5.11-13.94h.08Z"></path><path d="M238.2,172.76c.54-2.53.66-4.86-.62-6.77-1.54-2.32-5.56-2.57-8.38-2.57h-8.68l-6.59,31.12h7.3l2.57-12.12c2.78-.12,5.64.25,8.42-1C235.88,179.89,237.45,176.12,238.2,172.76Zm-7.35.12a5.94,5.94,0,0,1-1.57,3.15c-1.37.92-2.91.75-4.28.79l1.66-7.8h.79a8.62,8.62,0,0,1,2.78.25C231.35,169.85,231.1,171.68,230.85,172.88Z"></path><path d="M246.54,163.42l-13.41,31.12h7.35l2.15-6.06h5.73l-.25,6.06h7.39l-.17-31.12ZM248.82,183h-4.24l5.11-13.94h.08Z"></path><path d="M281.46,172c1.33-6.18-1.16-8.59-7.13-8.59H263.67l-6.6,31.12h7.3L267,182.26h2.41c1.66.12,2,1.37,1.78,3.28s-.91,4.48-1.36,7.21a5.93,5.93,0,0,0,0,1.79h8l.09-.42a2.25,2.25,0,0,1-.46-1.08c0-2,1.08-7.34,1.41-9.83a3.33,3.33,0,0,0-2.74-4v-.09C279.47,177.69,280.76,175.33,281.46,172Zm-7.38.79c-.37,1.91-1.29,3.86-3.4,3.86h-2.49l1.62-7.64C273.37,168.94,274.87,169.11,274.08,172.8Z"></path><path d="M294.9,162.67c-5.64,0-9.79,3-11,8.84a7.9,7.9,0,0,0,.79,6.23,15.61,15.61,0,0,0,4.64,4.06c1.66,1.16,3.61,2.16,3.07,4.77-.33,1.58-1.41,3.11-3.11,3.11-2.32,0-2.57-1.57-2.2-3.36l.46-2.2h-6.77l-.7,3.32c-.87,4.11,1.16,7.85,7.84,7.85,6.06,0,10.08-3.32,11.37-9.3.79-3.77.25-5.85-1.12-7.42s-3.53-2.66-5.89-4.4c-1.25-1-2-1.95-1.37-3.82a2.75,2.75,0,0,1,3-2.07c2.36.16,1.74,2.65,1.45,4.48H302C303.62,166.91,301.25,162.67,294.9,162.67Z"></path><path d="M323.69,163.42l-5.35,25.14c-.17.87-.58,1.08-1.66,1.12s-1.41-.41-1.16-1.57l.83-3.94H310.5l-.38,1.78a16.06,16.06,0,0,0-.54,4.19c.13,3.49,2.78,5.15,6.27,5.15,3.15,0,6.06-.67,8.17-3.53,1.54-2.08,1.91-4.48,2.37-6.68l4.6-21.66Z"></path><path d="M341.36,170.64c-5.1,0-9,2-10.29,8l-2,9.46c-1.12,5.31,2.36,7.22,7.09,7.22,5,0,8.72-2,10.17-7.22l2-9.46C349.41,173.38,347.17,170.64,341.36,170.64Zm.46,7.47-2.2,10.37c-.42,1.33-1.08,2-2.45,2s-1.78-.7-1.62-2l2.2-10.37c.33-1.49,1.08-2.7,2.62-2.7S342.15,176.62,341.82,178.11Z"></path><polygon points="353.6 171.31 348.66 194.54 355.26 194.54 360.19 171.31 353.6 171.31"></polygon><polygon points="361.85 163.42 355.26 163.42 354.1 169.02 360.69 169.02 361.85 163.42"></polygon><path d="M375.13,170.64c-2.08,0-4.36,1.78-5.35,3.57h-.09l.62-2.91h-6.14l-4.93,23.24h6.59l3.53-16.6a2.21,2.21,0,0,1,2.2-1.91c1.24-.08,1.49.83,1.33,1.91l-3.53,16.6H376l4.06-19C380.69,172.34,378.24,170.64,375.13,170.64Z"></path><path d="M387.86,184H399l1.41-6.64c1.08-5-2.82-6.76-7.47-6.72-5.1,0-9.29,2-10.53,8l-2,9.46c-1.12,5.31,2.62,7.26,7.35,7.22,5.76-.09,9.58-2.83,10.49-8.8h-6.55c-.54,1.95-.75,4.15-3.16,4-1.45-.08-1.78-1.16-1.53-2.44Zm1.25-5.89c.33-1.62,1.12-3.11,3-3.11a1.8,1.8,0,0,1,1.74,2.36l-.49,2.28h-4.57Z"></path><path d="M415.82,170.64c-2.74,0-4.69,1.7-6,4.19h-.09l.75-3.53h-6.14l-4.94,23.24H406l3-14.32c.54-1.9,1.37-2.28,3.23-2.28a9.56,9.56,0,0,1,1.95.17Z"></path><path d="M422.71,186.32h-.09l1-15h-6.64l.12,21a17.91,17.91,0,0,1-.08,3.94c-.21.91-1.58,1.29-2.24,1.16a11.5,11.5,0,0,0-1.25-.16l-1,4.89c.66,0,1.41.21,2.57.21,7.22,0,8.21-4.9,11.2-11.2l8.42-19.88h-6.47Z"></path><polygon points="454.98 163.42 447.68 163.42 441.08 194.54 457.3 194.54 458.63 188.31 449.71 188.31 454.98 163.42"></polygon><path d="M469.62,189.93c-.87,0-1.41-.29-1.12-1.62l2.61-12.23h3.16l1-4.78h-3.15l1.41-6.63h-6.6l-1.41,6.63H462.9l-1,4.78h2.62l-2.87,13.44c-.74,3.52.79,5.35,4.36,5.35a31.34,31.34,0,0,0,4.31-.37l1-4.65A8.23,8.23,0,0,0,469.62,189.93Z"></path><path d="M487.5,173.42h-.08a4.37,4.37,0,0,0-4.24-2.78c-4.35,0-6.55,4.32-7.3,8l-1.74,8c-.83,3.94-.83,8.46,3.94,8.63a7.86,7.86,0,0,0,5.89-3.45h.08l-.58,2.7h6.14l6.6-31.12h-6.6Zm-1.5,7-1.16,5.48c-.45,2.24-1.08,4-2.86,4s-1.41-2.36-1.12-3.73l1.29-6c.29-1.49.78-4.11,2.9-4.11C486.67,176,486.46,178.4,486,180.39Z"></path><path d="M517.08,185.2c-.42,1.91-1.17,4.48-3.66,4.48-1.9,0-2.4-1-2-2.78l3.32-15.39c.42-2,1.25-3.28,3.53-3.23,1.37,0,2,1.36,1.45,4l-.42,2h7.31l.54-2.61c1.36-6.35-1.83-9-8-9-6.68,0-10.46,3.16-11.91,9.92l-2.7,12.78c-1.37,6.35.5,9.92,7.22,9.92,7.47,0,11.33-3.74,12.49-9.09l.79-3.82h-7.3Z"></path><path d="M538.89,170.64c-5.1,0-9,2-10.29,8l-2,9.46c-1.12,5.31,2.37,7.22,7.1,7.22,5,0,8.71-2,10.16-7.22l2-9.46C546.94,173.38,544.7,170.64,538.89,170.64Zm.46,7.47-2.2,10.37c-.41,1.33-1.08,2-2.45,2s-1.78-.7-1.62-2l2.2-10.37c.34-1.49,1.08-2.7,2.62-2.7S539.68,176.62,539.35,178.11Z"></path><path d="M571.29,170.64a7.06,7.06,0,0,0-5.43,3.07h-.08a3.88,3.88,0,0,0-4.28-3.07,8.1,8.1,0,0,0-5.64,3.36h-.08l.58-2.7h-6.14l-4.94,23.24h6.6l3.52-16.6a2.24,2.24,0,0,1,2.37-1.91c1.12,0,1.16.92,1.16,1.91l-3.53,16.6H562l3.53-16.6a2.2,2.2,0,0,1,2.19-1.91c1.25-.08,1.5.83,1.33,1.91l-3.52,16.6h6.59l4.07-19C576.85,172.34,574.4,170.64,571.29,170.64Z"></path><path d="M591.58,170.64a7.78,7.78,0,0,0-6.1,3.49h-.09l.58-2.83h-6.14l-6.59,31.08h6.59l2.12-10H582a4.74,4.74,0,0,0,4.19,2.95c4.86-.17,6.77-4.69,7.6-8.63l1.74-8C596.3,175,595.93,170.64,591.58,170.64Zm-2.91,9.21-1.29,6c-.29,1.49-.74,4-2.86,4-1.62,0-1.57-2.28-1.12-4.27l1.16-5.48c.46-2.24,1.25-4.11,3-4.11S589,178.48,588.67,179.85Z"></path><path d="M616.05,177.74c1.08-5.11-.87-7.1-7.38-7.1a12.15,12.15,0,0,0-6.93,1.83,8.79,8.79,0,0,0-3.7,6.18h6.6c.54-2,.91-3.61,3.32-3.61,1.33,0,1.83,1.12,1.58,2.4-.54,2.49-3.49,2.78-6.56,3.74s-6.31,2.61-7.43,7.88c-.78,3.69,1,6.23,4.73,6.23,2.62,0,4.24-1,6.31-2.83v2.08H613a7.91,7.91,0,0,1,0-2.57Zm-8.55,9.16c-.37,1.5-1.2,3.53-3.15,3.53a1.82,1.82,0,0,1-1.91-2.49,4.39,4.39,0,0,1,2.16-3,37.82,37.82,0,0,1,3.69-1.7Z"></path><path d="M631.56,170.64c-2.07,0-4.35,1.78-5.35,3.57h-.08l.62-2.91h-6.14l-4.94,23.24h6.6l3.53-16.6A2.2,2.2,0,0,1,628,176c1.24-.08,1.49.83,1.32,1.91l-3.52,16.6h6.59l4.07-19C637.12,172.34,634.68,170.64,631.56,170.64Z"></path><path d="M644.84,186.32h-.09l1-15h-6.64l.12,21a17.32,17.32,0,0,1-.08,3.94c-.21.91-1.57,1.29-2.24,1.16a11.64,11.64,0,0,0-1.24-.16l-1,4.89c.66,0,1.41.21,2.57.21,7.22,0,8.22-4.9,11.2-11.2l8.43-19.88h-6.48Z"></path><path d="M679,163.42h-5c-4.24,6.18-7.22,11.91-8.67,18.75-1.83,8.68-1.17,12.49.41,20.13h5.19a48.22,48.22,0,0,1,.49-19.17A63.35,63.35,0,0,1,679,163.42Z"></path><path d="M687.06,174.17c-1.24-1-2-1.95-1.36-3.82a2.75,2.75,0,0,1,3-2.07c2.37.16,1.74,2.65,1.45,4.48h6.73c1.57-5.85-.79-10.09-7.14-10.09-5.64,0-9.79,3-11,8.84a7.94,7.94,0,0,0,.79,6.23,15.79,15.79,0,0,0,4.65,4.06c1.66,1.16,3.61,2.16,3.07,4.77-.33,1.58-1.41,3.11-3.11,3.11-2.33,0-2.58-1.57-2.2-3.36l.45-2.2h-6.76l-.7,3.32c-.87,4.11,1.16,7.85,7.84,7.85,6,0,10.08-3.32,11.37-9.3.78-3.77.24-5.85-1.12-7.42S689.43,175.91,687.06,174.17Z"></path><polygon points="700.38 171.31 695.44 194.54 702.04 194.54 706.98 171.31 700.38 171.31"></polygon><polygon points="708.63 163.42 702.04 163.42 700.88 169.02 707.47 169.02 708.63 163.42"></polygon><path d="M721.91,170.64c-2.08,0-4.36,1.78-5.35,3.57h-.09l.63-2.91H711L706,194.54h6.6l3.52-16.6a2.21,2.21,0,0,1,2.2-1.91c1.25-.08,1.49.83,1.33,1.91l-3.53,16.6h6.6l4.06-19C727.47,172.34,725,170.64,721.91,170.64Z"></path><path d="M739.5,170.64c-5.11,0-8.59,2-9.84,8l-2,9.46c-1.12,5.31,1.91,7.22,6.64,7.22,1,0,1.62-.09,2.24-.13a8.67,8.67,0,0,0,7.18-4.52,31.77,31.77,0,0,0,1.7-5.52H739c-.37,1.74-.71,5.39-3.15,5.39-1.7,0-1.87-1.24-1.58-2.69l2.07-9.59c.29-1.49.88-2.82,2.58-2.82,1,0,1.37.5,1.49,1.45,0,.88-.29,1.79-.33,2.66l0,.41h6.22C748,173.54,746,170.72,739.5,170.64Z"></path><path d="M760,170.64c-5.1,0-9.29,2-10.54,8l-2,9.46c-1.12,5.31,2.61,7.26,7.34,7.22,5.77-.09,9.59-2.83,10.5-8.8H758.7c-.54,1.95-.74,4.15-3.15,4-1.45-.08-1.78-1.16-1.54-2.44l.88-4.07h11.16l1.41-6.64C768.54,172.34,764.64,170.6,760,170.64Zm.87,6.72-.5,2.28H755.8l.33-1.53c.33-1.62,1.12-3.11,3-3.11A1.8,1.8,0,0,1,760.86,177.36Z"></path><path d="M789.9,183.5l3.23-2.61c3.24-2.78,5-5,5.81-8.92,1.2-5.77-1.62-8.55-7.22-8.55-6.26,0-10.25,3.49-11.57,9.63l-.33,1.62h6.59l.29-1.5c.38-1.58,1.16-4.44,3.4-4.56,1.95-.17,2.29,1.49,1.95,3.07a8.58,8.58,0,0,1-3.11,5.27l-3.86,3.32c-4.1,3.65-8.21,8.09-9.33,13.23l-.21,1h18.63l1.2-5.6H784.63C785.38,187.19,788.53,184.58,789.9,183.5Z"></path><path d="M811.84,163.42c-5.93,0-9.79,2.57-11.12,8.8l-3.07,14.48c-1.28,6,1.54,8.59,7.35,8.59,7.09,0,10-3.28,11.41-10.09l2.36-11.2C820.39,167,819.31,163.42,811.84,163.42Zm.37,8.8-2.94,14c-.25,1.08-.71,3.82-3.07,3.9s-1.91-2.08-1.49-3.9l2.94-14c.37-1.75.87-3.61,3.11-3.61C813.25,168.61,812.34,171.76,812.21,172.22Z"></path><path d="M832.08,163.42c-5.93,0-9.79,2.57-11.11,8.8L817.9,186.7c-1.29,6,1.53,8.59,7.34,8.59,7.09,0,10-3.28,11.41-10.09L839,174C840.63,167,839.55,163.42,832.08,163.42Zm.38,8.8-3,14c-.25,1.08-.7,3.82-3.07,3.9s-1.91-2.08-1.49-3.9l2.94-14c.38-1.75.88-3.61,3.12-3.61C833.5,168.61,832.58,171.76,832.46,172.22Z"></path><path d="M852.37,174.5a7.76,7.76,0,0,0-5.06,1.53l.41-2.07c.42-1.78.79-5.35,3.45-5.35,1,0,1.41.29,1.66.83a3.83,3.83,0,0,1,0,2h6.59c1.12-6.26-1.86-8.05-7.76-8.05-7.8,0-9.91,6.22-11.32,12.7l-1.75,8.21c-1.32,6.23-.29,11,6.68,11,7.68,0,10.5-4.44,12-11.46C858.26,179.15,858,174.5,852.37,174.5Zm-1.83,8.42-.66,3.11c-.42,1.83-1.29,4.07-3.24,4.07-1.61,0-2.07-1.25-1.74-2.7l1-4.56c.37-1.58,1.07-3.15,2.9-3.15S850.88,181.3,850.54,182.92Z"></path><path d="M868,163.42h-5.19a46.8,46.8,0,0,1-.5,19.17,61.18,61.18,0,0,1-7.59,19.71h5c4.27-6.19,7.22-11.91,8.67-18.76C870.29,174.87,869.58,171.06,868,163.42Z"></path></g><g><polygon points="240.61 2.98 210.9 73.95 210.58 73.95 211.06 2.98 171.87 2.98 146.74 123.13 173.13 123.13 190.36 28.93 190.67 28.93 190.04 123.13 210.74 123.13 250.09 28.93 250.41 28.93 227.81 123.13 254.35 123.13 279.48 2.98 240.61 2.98"></polygon><path d="M308.24,47h-.31l2.84-13.62H287.38l-18.8,89.71h25.13l11.53-55.27c2.05-7.37,5.22-8.81,12.33-8.81a37.67,37.67,0,0,1,7.42.64l6-28.84C320.57,30.85,313.14,37.42,308.24,47Z"></path><path d="M395.22,0C373.65,0,357.78,11.42,353,33.79c-2.22,10.48-.79,17.78,3,23.8s10.31,10.63,17.77,15.55c6.34,4.44,13.8,8.25,11.74,18.25-1.27,6-5.4,11.9-11.9,11.9-8.89,0-9.84-6-8.41-12.85L367,82H341.12l-2.7,12.69c-3.33,15.71,4.45,30,30,30,23.17,0,38.56-12.7,43.47-35.54,3-14.44,1-22.37-4.28-28.4S394.11,50.61,385.07,44c-4.76-3.81-7.61-7.46-5.24-14.6,1.75-5.23,5.72-8.41,11.43-7.93,9,.63,6.66,10.15,5.55,17.13h25.7C428.54,16.18,419.5,0,395.22,0Z"></path><path d="M457.42,104.24c-3.33,0-5.4-1.11-4.29-6.19l10-46.8h12.06L479,33H466.94l5.39-25.38H447.1L441.71,33h-10l-3.8,18.25h10L427,102.65c-2.85,13.49,3,20.47,16.66,20.47a114.74,114.74,0,0,0,16.5-1.43l3.81-17.77A30,30,0,0,0,457.42,104.24Z"></path><path d="M523.58,30.46c-10.16,0-19.2,2.07-26.5,7S484.86,50,483,61.08h25.23c2.06-7.45,3.49-13.8,12.69-13.8,5.08,0,7,4.29,6,9.2-2.06,9.52-13.33,10.63-25.07,14.28s-24.12,10-28.4,30.15c-3,14.12,3.81,23.8,18.09,23.8,10,0,16.18-3.81,24.11-10.79v7.93h24.6a29,29,0,0,1,0-9.84l11.58-54.42C555.94,38.08,548.49,30.46,523.58,30.46Zm-4.45,62.2c-1.42,5.71-4.6,13.48-12.05,13.48-6,0-8.57-4-7.3-9.52A16.57,16.57,0,0,1,508,85.2c3.65-2.38,8.41-3.81,14.12-6.5Z"></path><polygon points="574.35 33 555.47 121.85 580.69 121.85 599.57 33 574.35 33"></polygon><polygon points="605.92 2.86 580.69 2.86 576.25 24.27 601.48 24.27 605.92 2.86"></polygon><path d="M660.82,30.46c-10.48,0-17.93,6.51-22.85,16h-.32L640.51,33H617l-18.88,88.85h25.23L635,67.11c2.07-7.29,5.24-8.72,12.38-8.72a38.86,38.86,0,0,1,7.46.63Z"></path><path d="M692.7,63.62c-3.33-1.9-6.82-4.28-5.87-9,1.11-5.24,5.08-7.46,10-7.46,4.12,0,5.71,1.59,6.19,3.81.63,2.38,0,5.4-.32,8.41h23.64c5.08-19.67-7.78-28.88-26.18-28.88-17.61,0-34.59,8.25-38.55,27.45-1.43,6.51-.48,11.74,2.69,16.66,6,9,19.36,12.85,28.4,18.25a7.3,7.3,0,0,1,1.91,6.82c-1.27,5.71-5.56,8.41-11,8.41-3.81,0-5.71-1.75-6.51-4.29a17.68,17.68,0,0,1,.32-9H653.36c-5.4,21.42,6.66,30,26.65,30,18.56,0,35.38-8.41,39.66-28.24C724.12,75.36,707.46,71.08,692.7,63.62Z"></path><path d="M857.74,13.93H847.18l-4,18.86h4.12l1.6-7.54h3.24l2.57,7.54h4.75l-2.88-8c3.42-.23,5.5-1.65,6.25-5.06C863.68,15.49,861.64,14.07,857.74,13.93Zm1.06,5.33c-.49,2.4-1.64,2.79-3.73,2.75h-5.5l1-4.88h4.57C857,17.13,859.25,17.22,858.8,19.26Z"></path><path d="M856.94,5.86c-12.34,0-19.44,9.32-21.17,17.39-1.77,8.34,1.51,17.49,13.76,17.49a22,22,0,0,0,21.21-17.49C872.65,14.2,868.39,5.86,856.94,5.86Zm9.49,17.22a16.47,16.47,0,0,1-16.06,13.4c-7.85,0-11.94-5.33-10.25-13.23A16,16,0,0,1,856,10.12C863.77,10.12,868.08,15.27,866.43,23.08Z"></path><polygon points="722.9 123.23 734.48 123.23 736.95 111.12 725.37 111.12 722.9 123.23"></polygon><path d="M766.49,82.43c-8.43,0-14.19,3.4-16.24,13.6l-3.36,16.15c-1.85,9.07,3.15,12.33,11,12.33,1.64,0,2.67-.14,3.7-.21,4.8-.5,9.39-2.77,11.86-7.72a56,56,0,0,0,2.81-9.43H765.67c-.62,3-1.17,9.21-5.21,9.21-2.81,0-3.08-2.12-2.6-4.6l3.42-16.37c.48-2.55,1.44-4.82,4.25-4.82,1.65,0,2.26.85,2.47,2.48-.07,1.49-.48,3-.55,4.54l-.07.71h10.29C780.54,87.39,777.25,82.57,766.49,82.43Z"></path><path d="M802.21,82.43c-8.44,0-15,3.4-17,13.6l-3.36,16.15c-1.85,9.07,3.9,12.33,11.72,12.33,8.29,0,14.39-3.33,16.79-12.33L813.72,96C815.5,87.1,811.8,82.43,802.21,82.43ZM803,95.18l-3.63,17.71c-.69,2.27-1.79,3.47-4.05,3.47s-2.95-1.2-2.67-3.47l3.63-17.71c.55-2.55,1.78-4.61,4.32-4.61S803.51,92.63,803,95.18Z"></path><path d="M857.73,82.43c-3.09,0-6.31,1.7-9,5.24h-.14a6.41,6.41,0,0,0-7.06-5.24,13.28,13.28,0,0,0-9.32,5.74h-.14l1-4.61H822.91l-8.16,39.67h10.9l5.83-28.33c.54-2.13,1.71-3.26,3.9-3.26,1.85,0,1.92,1.56,1.92,3.26l-5.82,28.33h10.89L848.2,94.9a3.65,3.65,0,0,1,3.63-3.26c2.06-.14,2.47,1.41,2.2,3.26l-5.83,28.33h10.9l6.72-32.51C866.91,85.33,862.87,82.43,857.73,82.43Z"></path></g><rect y="133.11" width="870" height="17" fill="#1f7872"></rect></g></svg> 